<svg width="480" height="320" viewBox="0 0 480 320" fill="none" xmlns="http://www.w3.org/2000/svg">
  <rect width="480" height="320" rx="28" fill="#F4F1E9"/>
  <rect x="0" y="0" width="480" height="320" rx="28" fill="url(#bgGlow)"/>

  <g opacity="0.95">
    <rect x="-30" y="36" width="170" height="26" rx="6" transform="rotate(-12 -30 36)" fill="#E6E2D8"/>
    <rect x="82" y="-8" width="170" height="24" rx="6" transform="rotate(18 82 -8)" fill="#E9E4D9"/>
    <rect x="185" y="24" width="200" height="26" rx="6" transform="rotate(-10 185 24)" fill="#E8E3D8"/>
    <rect x="320" y="30" width="150" height="24" rx="6" transform="rotate(16 320 30)" fill="#E5E0D5"/>

    <rect x="-20" y="120" width="180" height="24" rx="6" transform="rotate(8 -20 120)" fill="#E7E2D8"/>
    <rect x="118" y="86" width="188" height="26" rx="6" transform="rotate(-15 118 86)" fill="#E6E1D6"/>
    <rect x="248" y="116" width="188" height="24" rx="6" transform="rotate(7 248 116)" fill="#E5E0D5"/>
    <rect x="364" y="86" width="150" height="24" rx="6" transform="rotate(-12 364 86)" fill="#E8E4DA"/>

    <rect x="-18" y="212" width="170" height="24" rx="6" transform="rotate(-12 -18 212)" fill="#E8E3D8"/>
    <rect x="108" y="196" width="210" height="26" rx="6" transform="rotate(10 108 196)" fill="#E4DFD4"/>
    <rect x="266" y="214" width="186" height="24" rx="6" transform="rotate(-14 266 214)" fill="#E9E4DA"/>
    <rect x="44" y="272" width="208" height="24" rx="6" transform="rotate(-8 44 272)" fill="#E6E0D4"/>
    <rect x="250" y="266" width="220" height="24" rx="6" transform="rotate(8 250 266)" fill="#E8E3D7"/>
  </g>

  <path d="M400 0H480V320H380C404 274 410 220 400 164C389 107 388 53 400 0Z" fill="#7BC4F6"/>
  <path d="M410 0H480V320H402C424 267 430 217 422 167C414 115 411 59 410 0Z" fill="#59AEE9" opacity="0.62"/>
  <path d="M402 0H480V36L430 60L456 92L414 126L440 166L400 208L438 244L392 284L420 320H480V0H402Z" fill="#8ED388" opacity="0.18"/>

  <path d="M34 124C124 134 168 118 214 154C248 180 288 185 330 184C358 183 381 194 402 211"
        stroke="#1FB25A" stroke-width="8" stroke-linecap="round" stroke-dasharray="8 12"/>

  <g filter="url(#shadowSoft)">
    <path d="M384 194C395 194 404 203 404 214C404 226 397 234 389 242C385 246 380 251 374 257C369 251 364 246 360 242C352 234 345 226 345 214C345 203 354 194 365 194C372 194 378 197 384 204C389 197 395 194 384 194Z"
          fill="#1F6CE0"/>
    <circle cx="375" cy="214" r="9" fill="#F8FBFF"/>
  </g>

  <g filter="url(#shadowSoft)">
    <path d="M309 221C320 221 329 230 329 241C329 253 322 261 314 269C310 273 305 278 299 284C294 278 289 273 285 269C277 261 270 253 270 241C270 230 279 221 290 221C296 221 302 224 309 231C313 224 319 221 309 221Z"
          fill="#28B24D"/>
    <circle cx="300" cy="241" r="9" fill="#F8FBFF"/>
  </g>

  <g filter="url(#shadowCard)">
    <rect x="248" y="84" width="138" height="42" rx="12" fill="#2569D9"/>
    <path d="M288 126L300 138L314 126H288Z" fill="#2569D9"/>
    <text x="317" y="111" text-anchor="middle" fill="#FFFFFF" font-family="Arial, Helvetica, sans-serif" font-size="16" font-weight="700">YUbus Stop</text>
  </g>

  <g filter="url(#shadowCard)">
    <rect x="312" y="250" width="118" height="42" rx="12" fill="#27AE43"/>
    <text x="371" y="277" text-anchor="middle" fill="#FFFFFF" font-family="Arial, Helvetica, sans-serif" font-size="16" font-weight="700">You Are Here</text>
  </g>

  <g filter="url(#shadowSoft)">
    <rect x="214" y="145" width="68" height="28" rx="10" fill="#D93A34"/>
    <rect x="224" y="136" width="28" height="16" rx="6" fill="#D93A34"/>
    <rect x="230" y="140" width="8" height="7" rx="2" fill="#B8D6FF"/>
    <rect x="240" y="140" width="8" height="7" rx="2" fill="#B8D6FF"/>
    <rect x="252" y="148" width="16" height="8" rx="3" fill="#F5C14D"/>
    <circle cx="228" cy="173" r="8" fill="#303644"/>
    <circle cx="267" cy="173" r="8" fill="#303644"/>
    <circle cx="228" cy="173" r="3.5" fill="#E5E8ED"/>
    <circle cx="267" cy="173" r="3.5" fill="#E5E8ED"/>
  </g>

  <g filter="url(#shadowCard)">
    <rect x="355" y="18" width="108" height="72" rx="16" fill="#FFFFFF"/>
    <g transform="translate(372 32)">
      <rect x="0" y="0" width="20" height="16" rx="4" fill="#E23A34"/>
      <rect x="3" y="4" width="14" height="5" rx="2" fill="#FFD8D5"/>
      <circle cx="5" cy="17" r="2.2" fill="#303644"/>
      <circle cx="15" cy="17" r="2.2" fill="#303644"/>
    </g>
    <text x="406" y="45" fill="#2B3342" font-family="Arial, Helvetica, sans-serif" font-size="12" font-weight="700">Your Bus</text>

    <g transform="translate(372 57)">
      <rect x="0" y="0" width="20" height="16" rx="4" fill="#2D72DD"/>
      <rect x="4" y="4" width="12" height="5" rx="2" fill="#D6E8FF"/>
      <circle cx="5" cy="17" r="2.2" fill="#303644"/>
      <circle cx="15" cy="17" r="2.2" fill="#303644"/>
    </g>
    <text x="408" y="70" fill="#2B3342" font-family="Arial, Helvetica, sans-serif" font-size="12" font-weight="700">Bus Stop</text>
  </g>

  <text x="82" y="82" fill="#3A3D40" font-family="Arial, Helvetica, sans-serif" font-size="12" font-weight="700" transform="rotate(12 82 82)">Maple St</text>
  <text x="74" y="132" fill="#3A3D40" font-family="Arial, Helvetica, sans-serif" font-size="12" font-weight="700" transform="rotate(8 74 132)">Oakwood Rd</text>
  <text x="150" y="244" fill="#3A3D40" font-family="Arial, Helvetica, sans-serif" font-size="12" font-weight="700" transform="rotate(-12 150 244)">Central Ave</text>
  <text x="202" y="203" fill="#3A3D40" font-family="Arial, Helvetica, sans-serif" font-size="12" font-weight="700" transform="rotate(10 202 203)">Pine Hill Ave</text>
  <text x="430" y="126" fill="#FFFFFF" font-family="Arial, Helvetica, sans-serif" font-size="18" font-weight="700" transform="rotate(90 430 126)">River</text>

  <defs>
    <radialGradient id="bgGlow" cx="0" cy="0" r="1" gradientUnits="userSpaceOnUse" gradientTransform="translate(160 40) rotate(44) scale(364 311)">
      <stop stop-color="#FFFDF9"/>
      <stop offset="1" stop-color="#F4F1E9" stop-opacity="0"/>
    </radialGradient>
    <filter id="shadowCard" x="-20%" y="-20%" width="140%" height="160%" filterUnits="objectBoundingBox" color-interpolation-filters="sRGB">
      <feDropShadow dx="0" dy="10" stdDeviation="10" flood-color="#263040" flood-opacity="0.18"/>
    </filter>
    <filter id="shadowSoft" x="-30%" y="-30%" width="160%" height="180%" filterUnits="objectBoundingBox" color-interpolation-filters="sRGB">
      <feDropShadow dx="0" dy="8" stdDeviation="8" flood-color="#263040" flood-opacity="0.16"/>
    </filter>
  </defs>
</svg>
